<?xml version="1.0" standalone="no"?>
<svg xmlns="http://www.w3.org/2000/svg" xmlns:xlink="http://www.w3.org/1999/xlink" height="1080px" width="1920px">
  <defs>
    <pattern id="doodad" width="53.12" height="46" viewBox="0 0 34.64101615137755 30" patternUnits="userSpaceOnUse" patternTransform="rotate(217)">
      <rect width="100%" height="100%" fill="rgba(42, 67, 101,0)"/>
      <path d="M-20-20h200v200h-200M33.77 25.5L25.98 21L18.19 25.5L18.19 34.5L25.98 39L33.77 34.5zM16.45 25.5L8.66 21L0.87 25.5L0.87 34.5L8.66 39L16.45 34.5zM7.79 10.5L0 6L-7.79 10.5L-7.79 19.5L0 24L7.79 19.5zM16.45-4.5L8.66-9L0.87-4.5L0.87 4.5L8.66 9L16.45 4.5zM33.77-4.5L25.98-9L18.19-4.5L18.19 4.5L25.98 9L33.77 4.5zM42.43 10.5L34.64 6L26.85 10.5L26.85 19.5L34.64 24L42.43 19.5zM25.11 10.5L17.32 6L9.53 10.5L9.53 19.5L17.32 24L25.11 19.5z" fill="rgba(0, 255, 128,0.6)"/>
      <path d="M-20-20h200v200h-200M24.21 25.25L15.98 20.5L7.75 25.25L7.75 34.75L15.98 39.5L24.21 34.75zM6.89 25.25L-1.34 20.5L-9.57 25.25L-9.57 34.75L-1.34 39.5L6.89 34.75zM-1.77 10.25L-10 5.5L-18.23 10.25L-18.23 19.75L-10 24.5L-1.77 19.75zM6.89-4.75L-1.34-9.5L-9.57-4.75L-9.57 4.75L-1.34 9.5L6.89 4.75zM24.21-4.75L15.98-9.5L7.75-4.75L7.75 4.75L15.98 9.5L24.21 4.75zM32.87 10.25L24.64 5.5L16.41 10.25L16.41 19.75L24.64 24.5L32.87 19.75zM41.53 25.25L33.3 20.5L25.07 25.25L25.07 34.75L33.3 39.5L41.53 34.75zM15.55 40.25L7.32 35.5L-0.91 40.25L-0.91 49.75L7.32 54.5L15.55 49.75zM-10.43 25.25L-18.66 20.5L-26.89 25.25L-26.89 34.75L-18.66 39.5L-10.43 34.75zM-10.43-4.75L-18.66-9.5L-26.89-4.75L-26.89 4.75L-18.66 9.5L-10.43 4.75zM15.55-19.75L7.32-24.5L-0.91-19.75L-0.91-10.25L7.32-5.5L15.55-10.25zM41.53-4.75L33.3-9.5L25.07-4.75L25.07 4.75L33.3 9.5L41.53 4.75zM32.87 40.25L24.64 35.5L16.41 40.25L16.41 49.75L24.64 54.5L32.87 49.75zM-1.77 40.25L-10 35.5L-18.23 40.25L-18.23 49.75L-10 54.5L-1.77 49.75zM-19.09 10.25L-27.32 5.5L-35.55 10.25L-35.55 19.75L-27.32 24.5L-19.09 19.75zM-1.77-19.75L-10-24.5L-18.23-19.75L-18.23-10.25L-10-5.5L-1.77-10.25zM32.87-19.75L24.64-24.5L16.41-19.75L16.41-10.25L24.64-5.5L32.87-10.25zM50.19 10.25L41.96 5.5L33.73 10.25L33.73 19.75L41.96 24.5L50.19 19.75zM15.55 10.25L7.32 5.5L-0.91 10.25L-0.91 19.75L7.32 24.5L15.55 19.75z" fill="rgba(51, 221, 255,0.6)"/>
    </pattern>
  </defs>
  <rect fill="url(#doodad)" height="200%" width="200%"/>
</svg>
